<svg xmlns="http://www.w3.org/2000/svg" xmlns:v="https://svgstorm.com"
viewBox = "0 0 346 339"
width="346"
height="339">
<g fill="None" fill-opacity="0.0" stroke="#F7FDFC" stroke-opacity="1.00" stroke-width="0.3"><path d="
M 0.00 339.00 
L 346.00 339.00
L 346.00 0.00
L 0.00 0.00
L 0.00 339.00
M 34.00 128.00 
C 34.00 127.50 34.01 126.50 34.00 126.00
C 28.53 106.59 26.54 85.11 26.00 64.00
C 26.00 63.50 26.00 63.00 26.00 63.00
C 24.34 51.55 19.81 37.42 24.00 26.00
C 25.80 27.17 24.17 33.51 28.00 31.00
C 36.86 84.31 54.63 135.62 82.75 181.25 C 103.58 215.28 145.64 246.69 189.07 229.07 C 197.57 230.11 211.90 209.26 214.00 224.00
C 188.42 248.85 165.59 284.40 126.00 288.00 C 103.97 291.12 88.05 275.76 75.00 262.00
C 70.97 247.73 59.41 237.18 57.08 221.92 C 45.27 192.02 37.16 160.51 34.00 128.00
M 336.00 74.00 
C 301.45 71.61 265.63 61.85 229.00 63.00 C 193.14 62.10 157.41 65.14 126.75 81.75 C 97.84 96.11 82.84 129.23 86.00 160.00
C 66.69 126.49 36.41 77.53 68.25 42.25 C 109.15 15.64 163.34 29.50 208.01 36.99 C 251.58 46.14 294.00 60.04 336.00 74.00
M 249.00 80.00 
C 249.50 80.00 250.50 80.03 251.00 80.00
C 261.10 81.40 272.72 81.23 281.00 87.00
C 281.49 87.08 282.00 87.00 282.00 87.00
C 299.95 89.10 317.04 103.02 321.00 121.00
C 321.02 121.50 321.00 122.50 321.00 123.00
C 324.66 125.91 321.60 133.27 321.00 137.00
C 321.00 137.50 320.95 138.50 321.00 139.00
C 320.92 141.08 321.69 144.28 319.00 145.00
C 319.06 147.12 319.23 149.23 318.00 151.00
C 311.07 171.33 297.46 190.37 282.00 205.00
C 281.80 205.40 282.00 206.00 282.00 206.00
C 275.56 217.52 264.88 224.97 255.25 234.25 C 246.19 244.30 236.56 254.12 226.00 261.00
C 225.20 261.13 224.89 262.09 224.00 262.00
C 218.94 268.50 211.43 275.54 204.00 280.00
C 203.64 280.22 203.00 280.00 203.00 280.00
C 193.98 289.10 183.95 296.75 173.00 304.00
C 172.65 304.23 172.00 304.00 172.00 304.00
C 168.15 309.72 160.84 313.31 155.00 317.00
C 153.75 317.30 153.29 318.83 152.00 319.00
C 151.78 326.01 142.84 323.42 140.70 328.70 C 135.36 330.13 132.10 336.60 126.00 336.00
C 126.41 335.17 126.97 334.13 128.00 334.00
C 128.22 333.86 128.00 333.00 128.00 333.00
C 132.93 327.53 137.66 322.54 144.00 319.00
C 144.23 318.71 144.68 318.20 145.00 318.00
C 162.61 299.08 182.87 281.72 198.25 261.25 C 208.95 253.00 212.70 237.61 223.00 231.00
C 223.22 230.64 223.00 230.00 223.00 230.00
C 223.03 227.52 224.69 225.72 227.00 225.00
C 227.13 224.20 228.09 223.89 228.00 223.00
C 230.59 215.39 235.42 207.82 240.00 201.00
C 240.11 200.53 240.00 200.00 240.00 200.00
C 243.28 193.87 242.54 185.70 248.00 181.00
C 247.38 179.06 249.20 177.87 249.00 176.00
C 256.86 147.98 248.75 118.44 230.00 98.00
C 229.40 96.18 227.44 95.85 226.00 95.00
C 218.34 90.36 211.67 81.12 203.00 85.00
C 202.36 82.60 208.22 82.71 203.91 81.08 C 202.24 81.45 198.32 77.67 202.00 78.00
C 202.08 78.18 203.00 78.00 203.00 78.00
C 216.33 74.84 234.97 77.96 249.00 80.00
M 179.00 88.00 
C 225.45 93.90 251.88 155.67 220.75 192.75 C 193.98 231.29 127.95 224.25 110.08 180.92 C 86.38 136.37 128.98 79.02 179.00 88.00 Z"/>
</g>
<g fill="None" fill-opacity="0.0" stroke="#EDEDC8" stroke-opacity="1.00" stroke-width="0.3"><path d="
M 26.00 63.00 
C 26.61 53.77 23.00 43.59 26.00 35.00
C 42.32 99.23 58.93 168.89 111.25 215.75 C 138.58 241.30 181.71 239.36 212.00 221.00
C 187.59 251.47 158.16 289.03 115.00 287.00 C 73.40 275.21 58.79 227.21 48.00 190.00
C 47.84 189.56 48.00 189.00 48.00 189.00
C 40.71 169.89 38.57 147.82 34.00 128.00
C 37.16 160.51 45.27 192.02 57.08 221.92 C 59.41 237.18 70.97 247.73 75.00 262.00
C 88.05 275.76 103.97 291.12 126.00 288.00 C 165.59 284.40 188.42 248.85 214.00 224.00
C 211.90 209.26 197.57 230.11 189.07 229.07 C 145.64 246.69 103.58 215.28 82.75 181.25 C 54.63 135.62 36.86 84.31 28.00 31.00
C 24.17 33.51 25.80 27.17 24.00 26.00
C 19.81 37.42 24.34 51.55 26.00 63.00 Z"/>
</g>
<g fill="None" fill-opacity="0.0" stroke="#00A8BC" stroke-opacity="1.00" stroke-width="0.3"><path d="
M 336.00 74.00 
C 294.00 60.04 251.58 46.14 208.01 36.99 C 163.34 29.50 109.15 15.64 68.25 42.25 C 36.41 77.53 66.69 126.49 86.00 160.00
C 82.84 129.23 97.84 96.11 126.75 81.75 C 157.41 65.14 193.14 62.10 229.00 63.00 C 265.63 61.85 301.45 71.61 336.00 74.00 Z"/>
</g>
<g fill="None" fill-opacity="0.0" stroke="#B2CE71" stroke-opacity="1.00" stroke-width="0.3"><path d="
M 26.00 63.00 
C 26.00 63.00 26.00 63.50 26.00 64.00
C 28.72 66.28 25.23 71.79 28.00 74.00
C 28.16 65.13 26.60 56.70 26.00 48.00
C 32.75 55.41 31.03 70.00 36.31 79.69 C 54.02 137.81 77.86 207.62 138.08 232.92 C 161.36 240.60 187.97 234.25 208.00 225.00
C 183.20 252.96 154.14 290.89 112.00 285.00 C 72.38 270.81 61.11 224.59 48.00 190.00
C 58.79 227.21 73.40 275.21 115.00 287.00 C 158.16 289.03 187.59 251.47 212.00 221.00
C 181.71 239.36 138.58 241.30 111.25 215.75 C 58.93 168.89 42.32 99.23 26.00 35.00
C 23.00 43.59 26.61 53.77 26.00 63.00 Z"/>
</g>
<g fill="None" fill-opacity="0.0" stroke="#A0CD38" stroke-opacity="1.00" stroke-width="0.3"><path d="
M 28.00 74.00 
C 28.00 74.50 28.00 75.00 28.00 75.00
C 32.85 113.08 39.47 151.53 48.00 189.00
C 48.00 189.00 47.84 189.56 48.00 190.00
C 61.11 224.59 72.38 270.81 112.00 285.00 C 154.14 290.89 183.20 252.96 208.00 225.00
C 187.97 234.25 161.36 240.60 138.08 232.92 C 77.86 207.62 54.02 137.81 36.31 79.69 C 31.03 70.00 32.75 55.41 26.00 48.00
C 26.60 56.70 28.16 65.13 28.00 74.00 Z"/>
</g>
<g fill="None" fill-opacity="0.0" stroke="#EDEDC8" stroke-opacity="1.00" stroke-width="0.3"><path d="
M 34.00 126.00 
C 31.88 109.05 28.49 92.39 28.00 75.00
C 28.00 75.00 28.00 74.50 28.00 74.00
C 25.23 71.79 28.72 66.28 26.00 64.00
C 26.54 85.11 28.53 106.59 34.00 126.00 Z"/>
</g>
<g fill="None" fill-opacity="0.0" stroke="#B2CE71" stroke-opacity="1.00" stroke-width="0.3"><path d="
M 34.00 126.00 
C 34.01 126.50 34.00 127.50 34.00 128.00
C 38.57 147.82 40.71 169.89 48.00 189.00
C 39.47 151.53 32.85 113.08 28.00 75.00
C 28.49 92.39 31.88 109.05 34.00 126.00 Z"/>
</g>
<g fill="None" fill-opacity="0.0" stroke="#EDEDC8" stroke-opacity="1.00" stroke-width="0.3"><path d="
M 203.00 78.00 
C 214.76 77.98 227.23 77.65 238.00 80.00
C 239.33 80.00 240.67 80.00 242.00 80.00
C 244.33 80.00 246.67 80.00 249.00 80.00
C 234.97 77.96 216.33 74.84 203.00 78.00 Z"/>
</g>
<g fill="None" fill-opacity="0.0" stroke="#EDEDC8" stroke-opacity="1.00" stroke-width="0.3"><path d="
M 226.00 95.00 
C 220.33 87.01 209.40 83.45 202.00 78.00
C 198.32 77.67 202.24 81.45 203.91 81.08 C 208.22 82.71 202.36 82.60 203.00 85.00
C 211.67 81.12 218.34 90.36 226.00 95.00 Z"/>
</g>
<g fill="None" fill-opacity="0.0" stroke="#D79457" stroke-opacity="1.00" stroke-width="0.3"><path d="
M 226.00 95.00 
C 227.44 95.85 229.40 96.18 230.00 98.00
C 251.55 116.86 258.40 149.75 249.00 176.00
C 249.20 177.87 247.38 179.06 248.00 181.00
C 245.88 187.45 244.30 194.69 240.00 200.00
C 240.00 200.00 240.11 200.53 240.00 201.00
C 237.09 208.71 232.69 216.39 228.00 223.00
C 228.09 223.89 227.13 224.20 227.00 225.00
C 226.03 226.85 225.21 229.24 223.00 230.00
C 223.00 230.00 223.22 230.64 223.00 231.00
C 201.48 263.16 174.67 291.85 145.00 318.00
C 144.68 318.20 144.23 318.71 144.00 319.00
C 138.99 323.47 134.10 329.29 128.00 333.00
C 128.00 333.00 128.22 333.86 128.00 334.00
C 136.78 331.07 143.89 323.69 152.00 319.00
C 153.29 318.83 153.75 317.30 155.00 317.00
C 160.29 312.36 166.11 307.95 172.00 304.00
C 172.00 304.00 172.65 304.23 173.00 304.00
C 182.16 295.32 192.78 287.93 203.00 280.00
C 203.00 280.00 203.64 280.22 204.00 280.00
C 208.84 273.17 217.45 267.87 224.00 262.00
C 224.89 262.09 225.20 261.13 226.00 261.00
C 244.65 243.08 264.05 225.02 282.00 206.00
C 282.00 206.00 281.80 205.40 282.00 205.00
C 296.78 188.64 309.08 170.12 318.00 151.00
C 319.23 149.23 319.06 147.12 319.00 145.00
C 320.21 143.60 319.98 141.74 320.00 140.00
C 287.57 219.20 210.58 272.08 144.00 322.00
C 162.90 303.30 183.73 283.70 201.25 262.25 C 211.71 252.81 217.35 237.34 228.00 230.00
C 230.56 217.92 241.50 206.40 244.98 192.98 C 257.24 165.84 259.15 129.04 238.75 105.25 C 230.96 93.33 218.53 86.86 208.00 79.00
C 218.27 78.25 227.76 80.58 238.00 80.00
C 227.23 77.65 214.76 77.98 203.00 78.00
C 203.00 78.00 202.08 78.18 202.00 78.00
C 209.40 83.45 220.33 87.01 226.00 95.00 Z"/>
</g>
<g fill="None" fill-opacity="0.0" stroke="#EA7E1C" stroke-opacity="1.00" stroke-width="0.3"><path d="
M 320.00 140.00 
C 319.95 139.51 320.00 139.00 320.00 139.00
C 325.51 94.60 274.41 84.55 242.00 80.00
C 240.67 80.00 239.33 80.00 238.00 80.00
C 227.76 80.58 218.27 78.25 208.00 79.00
C 218.53 86.86 230.96 93.33 238.75 105.25 C 259.15 129.04 257.24 165.84 244.98 192.98 C 241.50 206.40 230.56 217.92 228.00 230.00
C 217.35 237.34 211.71 252.81 201.25 262.25 C 183.73 283.70 162.90 303.30 144.00 322.00
C 210.58 272.08 287.57 219.20 320.00 140.00 Z"/>
</g>
<g fill="None" fill-opacity="0.0" stroke="#D79457" stroke-opacity="1.00" stroke-width="0.3"><path d="
M 320.00 139.00 
C 320.25 138.75 321.00 139.00 321.00 139.00
C 320.95 138.50 321.00 137.50 321.00 137.00
C 321.00 132.33 321.00 127.67 321.00 123.00
C 321.00 122.50 321.02 121.50 321.00 121.00
C 316.17 102.96 298.10 92.67 282.00 87.00
C 282.00 87.00 281.49 87.08 281.00 87.00
C 271.41 83.51 260.39 82.89 251.00 80.00
C 250.50 80.03 249.50 80.00 249.00 80.00
C 246.67 80.00 244.33 80.00 242.00 80.00
C 274.41 84.55 325.51 94.60 320.00 139.00 Z"/>
</g>
<g fill="None" fill-opacity="0.0" stroke="#EDEDC8" stroke-opacity="1.00" stroke-width="0.3"><path d="
M 281.00 87.00 
C 272.72 81.23 261.10 81.40 251.00 80.00
C 260.39 82.89 271.41 83.51 281.00 87.00 Z"/>
</g>
<g fill="None" fill-opacity="0.0" stroke="#EDEDC8" stroke-opacity="1.00" stroke-width="0.3"><path d="
M 321.00 121.00 
C 317.04 103.02 299.95 89.10 282.00 87.00
C 298.10 92.67 316.17 102.96 321.00 121.00 Z"/>
</g>
<g fill="None" fill-opacity="0.0" stroke="#656B71" stroke-opacity="1.00" stroke-width="0.3"><path d="
M 179.00 88.00 
C 128.98 79.02 86.38 136.37 110.08 180.92 C 127.95 224.25 193.98 231.29 220.75 192.75 C 251.88 155.67 225.45 93.90 179.00 88.00 Z"/>
</g>
<g fill="None" fill-opacity="0.0" stroke="#EDEDC8" stroke-opacity="1.00" stroke-width="0.3"><path d="
M 249.00 176.00 
C 258.40 149.75 251.55 116.86 230.00 98.00
C 248.75 118.44 256.86 147.98 249.00 176.00 Z"/>
</g>
<g fill="None" fill-opacity="0.0" stroke="#EDEDC8" stroke-opacity="1.00" stroke-width="0.3"><path d="
M 321.00 137.00 
C 321.60 133.27 324.66 125.91 321.00 123.00
C 321.00 127.67 321.00 132.33 321.00 137.00 Z"/>
</g>
<g fill="None" fill-opacity="0.0" stroke="#EDEDC8" stroke-opacity="1.00" stroke-width="0.3"><path d="
M 320.00 140.00 
C 319.98 141.74 320.21 143.60 319.00 145.00
C 321.69 144.28 320.92 141.08 321.00 139.00
C 321.00 139.00 320.25 138.75 320.00 139.00
C 320.00 139.00 319.95 139.51 320.00 140.00 Z"/>
</g>
<g fill="None" fill-opacity="0.0" stroke="#EDEDC8" stroke-opacity="1.00" stroke-width="0.3"><path d="
M 282.00 205.00 
C 297.46 190.37 311.07 171.33 318.00 151.00
C 309.08 170.12 296.78 188.64 282.00 205.00 Z"/>
</g>
<g fill="None" fill-opacity="0.0" stroke="#EDEDC8" stroke-opacity="1.00" stroke-width="0.3"><path d="
M 240.00 200.00 
C 244.30 194.69 245.88 187.45 248.00 181.00
C 242.54 185.70 243.28 193.87 240.00 200.00 Z"/>
</g>
<g fill="None" fill-opacity="0.0" stroke="#EDEDC8" stroke-opacity="1.00" stroke-width="0.3"><path d="
M 228.00 223.00 
C 232.69 216.39 237.09 208.71 240.00 201.00
C 235.42 207.82 230.59 215.39 228.00 223.00 Z"/>
</g>
<g fill="None" fill-opacity="0.0" stroke="#EDEDC8" stroke-opacity="1.00" stroke-width="0.3"><path d="
M 226.00 261.00 
C 236.56 254.12 246.19 244.30 255.25 234.25 C 264.88 224.97 275.56 217.52 282.00 206.00
C 264.05 225.02 244.65 243.08 226.00 261.00 Z"/>
</g>
<g fill="None" fill-opacity="0.0" stroke="#EDEDC8" stroke-opacity="1.00" stroke-width="0.3"><path d="
M 223.00 230.00 
C 225.21 229.24 226.03 226.85 227.00 225.00
C 224.69 225.72 223.03 227.52 223.00 230.00 Z"/>
</g>
<g fill="None" fill-opacity="0.0" stroke="#EDEDC8" stroke-opacity="1.00" stroke-width="0.3"><path d="
M 145.00 318.00 
C 174.67 291.85 201.48 263.16 223.00 231.00
C 212.70 237.61 208.95 253.00 198.25 261.25 C 182.87 281.72 162.61 299.08 145.00 318.00 Z"/>
</g>
<g fill="None" fill-opacity="0.0" stroke="#EDEDC8" stroke-opacity="1.00" stroke-width="0.3"><path d="
M 204.00 280.00 
C 211.43 275.54 218.94 268.50 224.00 262.00
C 217.45 267.87 208.84 273.17 204.00 280.00 Z"/>
</g>
<g fill="None" fill-opacity="0.0" stroke="#EDEDC8" stroke-opacity="1.00" stroke-width="0.3"><path d="
M 173.00 304.00 
C 183.95 296.75 193.98 289.10 203.00 280.00
C 192.78 287.93 182.16 295.32 173.00 304.00 Z"/>
</g>
<g fill="None" fill-opacity="0.0" stroke="#EDEDC8" stroke-opacity="1.00" stroke-width="0.3"><path d="
M 155.00 317.00 
C 160.84 313.31 168.15 309.72 172.00 304.00
C 166.11 307.95 160.29 312.36 155.00 317.00 Z"/>
</g>
<g fill="None" fill-opacity="0.0" stroke="#EDEDC8" stroke-opacity="1.00" stroke-width="0.3"><path d="
M 128.00 333.00 
C 134.10 329.29 138.99 323.47 144.00 319.00
C 137.66 322.54 132.93 327.53 128.00 333.00 Z"/>
</g>
<g fill="None" fill-opacity="0.0" stroke="#EDEDC8" stroke-opacity="1.00" stroke-width="0.3"><path d="
M 128.00 334.00 
C 126.97 334.13 126.41 335.17 126.00 336.00
C 132.10 336.60 135.36 330.13 140.70 328.70 C 142.84 323.42 151.78 326.01 152.00 319.00
C 143.89 323.69 136.78 331.07 128.00 334.00 Z"/>
</g>
<g fill="#F7FDFC" fill-opacity="1.00" stroke="None">
<path d="
M 0.00 339.00 
L 346.00 339.00
L 346.00 0.00
L 0.00 0.00
L 0.00 339.00
M 34.00 128.00 
C 34.00 127.50 34.01 126.50 34.00 126.00
C 28.53 106.59 26.54 85.11 26.00 64.00
C 26.00 63.50 26.00 63.00 26.00 63.00
C 24.34 51.55 19.81 37.42 24.00 26.00
C 25.80 27.17 24.17 33.51 28.00 31.00
C 36.86 84.31 54.63 135.62 82.75 181.25 C 103.58 215.28 145.64 246.69 189.07 229.07 C 197.57 230.11 211.90 209.26 214.00 224.00
C 188.42 248.85 165.59 284.40 126.00 288.00 C 103.97 291.12 88.05 275.76 75.00 262.00
C 70.97 247.73 59.41 237.18 57.08 221.92 C 45.27 192.02 37.16 160.51 34.00 128.00
M 336.00 74.00 
C 301.45 71.61 265.63 61.85 229.00 63.00 C 193.14 62.10 157.41 65.14 126.75 81.75 C 97.84 96.11 82.84 129.23 86.00 160.00
C 66.69 126.49 36.41 77.53 68.25 42.25 C 109.15 15.64 163.34 29.50 208.01 36.99 C 251.58 46.14 294.00 60.04 336.00 74.00
M 249.00 80.00 
C 249.50 80.00 250.50 80.03 251.00 80.00
C 261.10 81.40 272.72 81.23 281.00 87.00
C 281.49 87.08 282.00 87.00 282.00 87.00
C 299.95 89.10 317.04 103.02 321.00 121.00
C 321.02 121.50 321.00 122.50 321.00 123.00
C 324.66 125.91 321.60 133.27 321.00 137.00
C 321.00 137.50 320.95 138.50 321.00 139.00
C 320.92 141.08 321.69 144.28 319.00 145.00
C 319.06 147.12 319.23 149.23 318.00 151.00
C 311.07 171.33 297.46 190.37 282.00 205.00
C 281.80 205.40 282.00 206.00 282.00 206.00
C 275.56 217.52 264.88 224.97 255.25 234.25 C 246.19 244.30 236.56 254.12 226.00 261.00
C 225.20 261.13 224.89 262.09 224.00 262.00
C 218.94 268.50 211.43 275.54 204.00 280.00
C 203.64 280.22 203.00 280.00 203.00 280.00
C 193.98 289.10 183.95 296.75 173.00 304.00
C 172.65 304.23 172.00 304.00 172.00 304.00
C 168.15 309.72 160.84 313.31 155.00 317.00
C 153.75 317.30 153.29 318.83 152.00 319.00
C 151.78 326.01 142.84 323.42 140.70 328.70 C 135.36 330.13 132.10 336.60 126.00 336.00
C 126.41 335.17 126.97 334.13 128.00 334.00
C 128.22 333.86 128.00 333.00 128.00 333.00
C 132.93 327.53 137.66 322.54 144.00 319.00
C 144.23 318.71 144.68 318.20 145.00 318.00
C 162.61 299.08 182.87 281.72 198.25 261.25 C 208.95 253.00 212.70 237.61 223.00 231.00
C 223.22 230.64 223.00 230.00 223.00 230.00
C 223.03 227.52 224.69 225.72 227.00 225.00
C 227.13 224.20 228.09 223.89 228.00 223.00
C 230.59 215.39 235.42 207.82 240.00 201.00
C 240.11 200.53 240.00 200.00 240.00 200.00
C 243.28 193.87 242.54 185.70 248.00 181.00
C 247.38 179.06 249.20 177.87 249.00 176.00
C 256.86 147.98 248.75 118.44 230.00 98.00
C 229.40 96.18 227.44 95.85 226.00 95.00
C 218.34 90.36 211.67 81.12 203.00 85.00
C 202.36 82.60 208.22 82.71 203.91 81.08 C 202.24 81.45 198.32 77.67 202.00 78.00
C 202.08 78.18 203.00 78.00 203.00 78.00
C 216.33 74.84 234.97 77.96 249.00 80.00
M 179.00 88.00 
C 225.45 93.90 251.88 155.67 220.75 192.75 C 193.98 231.29 127.95 224.25 110.08 180.92 C 86.38 136.37 128.98 79.02 179.00 88.00 Z"/>
</g>
<g fill="#EDEDC8" fill-opacity="1.00" stroke="None">
<path d="
M 26.00 63.00 
C 26.61 53.77 23.00 43.59 26.00 35.00
C 42.32 99.23 58.93 168.89 111.25 215.75 C 138.58 241.30 181.71 239.36 212.00 221.00
C 187.59 251.47 158.16 289.03 115.00 287.00 C 73.40 275.21 58.79 227.21 48.00 190.00
C 47.84 189.56 48.00 189.00 48.00 189.00
C 40.71 169.89 38.57 147.82 34.00 128.00
C 37.16 160.51 45.27 192.02 57.08 221.92 C 59.41 237.18 70.97 247.73 75.00 262.00
C 88.05 275.76 103.97 291.12 126.00 288.00 C 165.59 284.40 188.42 248.85 214.00 224.00
C 211.90 209.26 197.57 230.11 189.07 229.07 C 145.64 246.69 103.58 215.28 82.75 181.25 C 54.63 135.62 36.86 84.31 28.00 31.00
C 24.17 33.51 25.80 27.17 24.00 26.00
C 19.81 37.42 24.34 51.55 26.00 63.00 Z"/>
</g>
<g fill="#00A8BC" fill-opacity="1.00" stroke="None">
<path d="
M 336.00 74.00 
C 294.00 60.04 251.58 46.14 208.01 36.99 C 163.34 29.50 109.15 15.64 68.25 42.25 C 36.41 77.53 66.69 126.49 86.00 160.00
C 82.84 129.23 97.84 96.11 126.75 81.75 C 157.41 65.14 193.14 62.10 229.00 63.00 C 265.63 61.85 301.45 71.61 336.00 74.00 Z"/>
</g>
<g fill="#B2CE71" fill-opacity="1.00" stroke="None">
<path d="
M 26.00 63.00 
C 26.00 63.00 26.00 63.50 26.00 64.00
C 28.72 66.28 25.23 71.79 28.00 74.00
C 28.16 65.13 26.60 56.70 26.00 48.00
C 32.75 55.41 31.03 70.00 36.31 79.69 C 54.02 137.81 77.86 207.62 138.08 232.92 C 161.36 240.60 187.97 234.25 208.00 225.00
C 183.20 252.96 154.14 290.89 112.00 285.00 C 72.38 270.81 61.11 224.59 48.00 190.00
C 58.79 227.21 73.40 275.21 115.00 287.00 C 158.16 289.03 187.59 251.47 212.00 221.00
C 181.71 239.36 138.58 241.30 111.25 215.75 C 58.93 168.89 42.32 99.23 26.00 35.00
C 23.00 43.59 26.61 53.77 26.00 63.00 Z"/>
</g>
<g fill="#A0CD38" fill-opacity="1.00" stroke="None">
<path d="
M 28.00 74.00 
C 28.00 74.50 28.00 75.00 28.00 75.00
C 32.85 113.08 39.47 151.53 48.00 189.00
C 48.00 189.00 47.84 189.56 48.00 190.00
C 61.11 224.59 72.38 270.81 112.00 285.00 C 154.14 290.89 183.20 252.96 208.00 225.00
C 187.97 234.25 161.36 240.60 138.08 232.92 C 77.86 207.62 54.02 137.81 36.31 79.69 C 31.03 70.00 32.75 55.41 26.00 48.00
C 26.60 56.70 28.16 65.13 28.00 74.00 Z"/>
</g>
<g fill="#EDEDC8" fill-opacity="1.00" stroke="None">
<path d="
M 34.00 126.00 
C 31.88 109.05 28.49 92.39 28.00 75.00
C 28.00 75.00 28.00 74.50 28.00 74.00
C 25.23 71.79 28.72 66.28 26.00 64.00
C 26.54 85.11 28.53 106.59 34.00 126.00 Z"/>
</g>
<g fill="#B2CE71" fill-opacity="1.00" stroke="None">
<path d="
M 34.00 126.00 
C 34.01 126.50 34.00 127.50 34.00 128.00
C 38.57 147.82 40.71 169.89 48.00 189.00
C 39.47 151.53 32.85 113.08 28.00 75.00
C 28.49 92.39 31.88 109.05 34.00 126.00 Z"/>
</g>
<g fill="#EDEDC8" fill-opacity="1.00" stroke="None">
<path d="
M 203.00 78.00 
C 214.76 77.98 227.23 77.65 238.00 80.00
C 239.33 80.00 240.67 80.00 242.00 80.00
C 244.33 80.00 246.67 80.00 249.00 80.00
C 234.97 77.96 216.33 74.84 203.00 78.00 Z"/>
</g>
<g fill="#EDEDC8" fill-opacity="1.00" stroke="None">
<path d="
M 226.00 95.00 
C 220.33 87.01 209.40 83.45 202.00 78.00
C 198.32 77.67 202.24 81.45 203.91 81.08 C 208.22 82.71 202.36 82.60 203.00 85.00
C 211.67 81.12 218.34 90.36 226.00 95.00 Z"/>
</g>
<g fill="#D79457" fill-opacity="1.00" stroke="None">
<path d="
M 226.00 95.00 
C 227.44 95.85 229.40 96.18 230.00 98.00
C 251.55 116.86 258.40 149.75 249.00 176.00
C 249.20 177.87 247.38 179.06 248.00 181.00
C 245.88 187.45 244.30 194.69 240.00 200.00
C 240.00 200.00 240.11 200.53 240.00 201.00
C 237.09 208.71 232.69 216.39 228.00 223.00
C 228.09 223.89 227.13 224.20 227.00 225.00
C 226.03 226.85 225.21 229.24 223.00 230.00
C 223.00 230.00 223.22 230.64 223.00 231.00
C 201.48 263.16 174.67 291.85 145.00 318.00
C 144.68 318.20 144.23 318.71 144.00 319.00
C 138.99 323.47 134.10 329.29 128.00 333.00
C 128.00 333.00 128.22 333.86 128.00 334.00
C 136.78 331.07 143.89 323.69 152.00 319.00
C 153.29 318.83 153.75 317.30 155.00 317.00
C 160.29 312.36 166.11 307.95 172.00 304.00
C 172.00 304.00 172.65 304.23 173.00 304.00
C 182.16 295.32 192.78 287.93 203.00 280.00
C 203.00 280.00 203.64 280.22 204.00 280.00
C 208.84 273.17 217.45 267.87 224.00 262.00
C 224.89 262.09 225.20 261.13 226.00 261.00
C 244.65 243.08 264.05 225.02 282.00 206.00
C 282.00 206.00 281.80 205.40 282.00 205.00
C 296.78 188.64 309.08 170.12 318.00 151.00
C 319.23 149.23 319.06 147.12 319.00 145.00
C 320.21 143.60 319.98 141.74 320.00 140.00
C 287.57 219.20 210.58 272.08 144.00 322.00
C 162.90 303.30 183.73 283.70 201.25 262.25 C 211.71 252.81 217.35 237.34 228.00 230.00
C 230.56 217.92 241.50 206.40 244.98 192.98 C 257.24 165.84 259.15 129.04 238.75 105.25 C 230.96 93.33 218.53 86.86 208.00 79.00
C 218.27 78.25 227.76 80.58 238.00 80.00
C 227.23 77.65 214.76 77.98 203.00 78.00
C 203.00 78.00 202.08 78.18 202.00 78.00
C 209.40 83.45 220.33 87.01 226.00 95.00 Z"/>
</g>
<g fill="#EA7E1C" fill-opacity="1.00" stroke="None">
<path d="
M 320.00 140.00 
C 319.95 139.51 320.00 139.00 320.00 139.00
C 325.51 94.60 274.41 84.55 242.00 80.00
C 240.67 80.00 239.33 80.00 238.00 80.00
C 227.76 80.58 218.27 78.25 208.00 79.00
C 218.53 86.86 230.96 93.33 238.75 105.25 C 259.15 129.04 257.24 165.84 244.98 192.98 C 241.50 206.40 230.56 217.92 228.00 230.00
C 217.35 237.34 211.71 252.81 201.25 262.25 C 183.73 283.70 162.90 303.30 144.00 322.00
C 210.58 272.08 287.57 219.20 320.00 140.00 Z"/>
</g>
<g fill="#D79457" fill-opacity="1.00" stroke="None">
<path d="
M 320.00 139.00 
C 320.25 138.75 321.00 139.00 321.00 139.00
C 320.95 138.50 321.00 137.50 321.00 137.00
C 321.00 132.33 321.00 127.67 321.00 123.00
C 321.00 122.50 321.02 121.50 321.00 121.00
C 316.17 102.96 298.10 92.67 282.00 87.00
C 282.00 87.00 281.49 87.08 281.00 87.00
C 271.41 83.51 260.39 82.89 251.00 80.00
C 250.50 80.03 249.50 80.00 249.00 80.00
C 246.67 80.00 244.33 80.00 242.00 80.00
C 274.41 84.55 325.51 94.60 320.00 139.00 Z"/>
</g>
<g fill="#EDEDC8" fill-opacity="1.00" stroke="None">
<path d="
M 281.00 87.00 
C 272.72 81.23 261.10 81.40 251.00 80.00
C 260.39 82.89 271.41 83.51 281.00 87.00 Z"/>
</g>
<g fill="#EDEDC8" fill-opacity="1.00" stroke="None">
<path d="
M 321.00 121.00 
C 317.04 103.02 299.95 89.10 282.00 87.00
C 298.10 92.67 316.17 102.96 321.00 121.00 Z"/>
</g>
<g fill="#656B71" fill-opacity="1.00" stroke="None">
<path d="
M 179.00 88.00 
C 128.98 79.02 86.38 136.37 110.08 180.92 C 127.95 224.25 193.98 231.29 220.75 192.75 C 251.88 155.67 225.45 93.90 179.00 88.00 Z"/>
</g>
<g fill="#EDEDC8" fill-opacity="1.00" stroke="None">
<path d="
M 249.00 176.00 
C 258.40 149.75 251.55 116.86 230.00 98.00
C 248.75 118.44 256.86 147.98 249.00 176.00 Z"/>
</g>
<g fill="#EDEDC8" fill-opacity="1.00" stroke="None">
<path d="
M 321.00 137.00 
C 321.60 133.27 324.66 125.91 321.00 123.00
C 321.00 127.67 321.00 132.33 321.00 137.00 Z"/>
</g>
<g fill="#EDEDC8" fill-opacity="1.00" stroke="None">
<path d="
M 320.00 140.00 
C 319.98 141.74 320.21 143.60 319.00 145.00
C 321.69 144.28 320.92 141.08 321.00 139.00
C 321.00 139.00 320.25 138.75 320.00 139.00
C 320.00 139.00 319.95 139.51 320.00 140.00 Z"/>
</g>
<g fill="#EDEDC8" fill-opacity="1.00" stroke="None">
<path d="
M 282.00 205.00 
C 297.46 190.37 311.07 171.33 318.00 151.00
C 309.08 170.12 296.78 188.64 282.00 205.00 Z"/>
</g>
<g fill="#EDEDC8" fill-opacity="1.00" stroke="None">
<path d="
M 240.00 200.00 
C 244.30 194.69 245.88 187.45 248.00 181.00
C 242.54 185.70 243.28 193.87 240.00 200.00 Z"/>
</g>
<g fill="#EDEDC8" fill-opacity="1.00" stroke="None">
<path d="
M 228.00 223.00 
C 232.69 216.39 237.09 208.71 240.00 201.00
C 235.42 207.82 230.59 215.39 228.00 223.00 Z"/>
</g>
<g fill="#EDEDC8" fill-opacity="1.00" stroke="None">
<path d="
M 226.00 261.00 
C 236.56 254.12 246.19 244.30 255.25 234.25 C 264.88 224.97 275.56 217.52 282.00 206.00
C 264.05 225.02 244.65 243.08 226.00 261.00 Z"/>
</g>
<g fill="#EDEDC8" fill-opacity="1.00" stroke="None">
<path d="
M 223.00 230.00 
C 225.21 229.24 226.03 226.85 227.00 225.00
C 224.69 225.72 223.03 227.52 223.00 230.00 Z"/>
</g>
<g fill="#EDEDC8" fill-opacity="1.00" stroke="None">
<path d="
M 145.00 318.00 
C 174.67 291.85 201.48 263.16 223.00 231.00
C 212.70 237.61 208.95 253.00 198.25 261.25 C 182.87 281.72 162.61 299.08 145.00 318.00 Z"/>
</g>
<g fill="#EDEDC8" fill-opacity="1.00" stroke="None">
<path d="
M 204.00 280.00 
C 211.43 275.54 218.94 268.50 224.00 262.00
C 217.45 267.87 208.84 273.17 204.00 280.00 Z"/>
</g>
<g fill="#EDEDC8" fill-opacity="1.00" stroke="None">
<path d="
M 173.00 304.00 
C 183.95 296.75 193.98 289.10 203.00 280.00
C 192.78 287.93 182.16 295.32 173.00 304.00 Z"/>
</g>
<g fill="#EDEDC8" fill-opacity="1.00" stroke="None">
<path d="
M 155.00 317.00 
C 160.84 313.31 168.15 309.72 172.00 304.00
C 166.11 307.95 160.29 312.36 155.00 317.00 Z"/>
</g>
<g fill="#EDEDC8" fill-opacity="1.00" stroke="None">
<path d="
M 128.00 333.00 
C 134.10 329.29 138.99 323.47 144.00 319.00
C 137.66 322.54 132.93 327.53 128.00 333.00 Z"/>
</g>
<g fill="#EDEDC8" fill-opacity="1.00" stroke="None">
<path d="
M 128.00 334.00 
C 126.97 334.13 126.41 335.17 126.00 336.00
C 132.10 336.60 135.36 330.13 140.70 328.70 C 142.84 323.42 151.78 326.01 152.00 319.00
C 143.89 323.69 136.78 331.07 128.00 334.00 Z"/>
</g>
</svg>